<mxfile host="app.diagrams.net" modified="2024-02-14T21:54:11.212Z" agent="Mozilla/5.0 (Macintosh; Intel Mac OS X 10_15_7) AppleWebKit/537.36 (KHTML, like Gecko) Chrome/121.0.0.0 Safari/537.36" etag="SUg0p2fTxXwncMhLGLSV" version="23.1.4" type="device">
  <diagram name="Page-1" id="Bb6LXDtEz_sYWGLjZxI-">
    <mxGraphModel dx="1306" dy="801" grid="1" gridSize="10" guides="1" tooltips="1" connect="1" arrows="1" fold="1" page="1" pageScale="1" pageWidth="1100" pageHeight="850" math="0" shadow="0">
      <root>
        <mxCell id="0" />
        <mxCell id="1" parent="0" />
        <mxCell id="GYPXxwKoCCbLL2YYA7uZ-16" style="edgeStyle=orthogonalEdgeStyle;rounded=0;orthogonalLoop=1;jettySize=auto;html=1;exitX=1;exitY=0.5;exitDx=0;exitDy=0;entryX=0;entryY=0.5;entryDx=0;entryDy=0;" edge="1" parent="1" source="GYPXxwKoCCbLL2YYA7uZ-1" target="GYPXxwKoCCbLL2YYA7uZ-3">
          <mxGeometry relative="1" as="geometry" />
        </mxCell>
        <mxCell id="GYPXxwKoCCbLL2YYA7uZ-1" value="User rolls dice" style="rounded=1;whiteSpace=wrap;html=1;fillColor=#fff2cc;strokeColor=#d6b656;" vertex="1" parent="1">
          <mxGeometry x="40" y="130" width="120" height="60" as="geometry" />
        </mxCell>
        <mxCell id="GYPXxwKoCCbLL2YYA7uZ-17" style="edgeStyle=orthogonalEdgeStyle;rounded=0;orthogonalLoop=1;jettySize=auto;html=1;exitX=1;exitY=0.5;exitDx=0;exitDy=0;entryX=0;entryY=0.5;entryDx=0;entryDy=0;" edge="1" parent="1" source="GYPXxwKoCCbLL2YYA7uZ-3" target="GYPXxwKoCCbLL2YYA7uZ-9">
          <mxGeometry relative="1" as="geometry" />
        </mxCell>
        <mxCell id="GYPXxwKoCCbLL2YYA7uZ-3" value="Generate random number" style="rounded=0;whiteSpace=wrap;html=1;fillColor=#d5e8d4;strokeColor=#82b366;" vertex="1" parent="1">
          <mxGeometry x="220" y="130" width="120" height="60" as="geometry" />
        </mxCell>
        <mxCell id="GYPXxwKoCCbLL2YYA7uZ-18" style="edgeStyle=orthogonalEdgeStyle;rounded=0;orthogonalLoop=1;jettySize=auto;html=1;exitX=0.5;exitY=1;exitDx=0;exitDy=0;" edge="1" parent="1" source="GYPXxwKoCCbLL2YYA7uZ-4" target="GYPXxwKoCCbLL2YYA7uZ-13">
          <mxGeometry relative="1" as="geometry" />
        </mxCell>
        <mxCell id="GYPXxwKoCCbLL2YYA7uZ-21" style="edgeStyle=orthogonalEdgeStyle;rounded=0;orthogonalLoop=1;jettySize=auto;html=1;exitX=1;exitY=0.5;exitDx=0;exitDy=0;entryX=0;entryY=0.5;entryDx=0;entryDy=0;" edge="1" parent="1" source="GYPXxwKoCCbLL2YYA7uZ-4" target="GYPXxwKoCCbLL2YYA7uZ-10">
          <mxGeometry relative="1" as="geometry" />
        </mxCell>
        <mxCell id="GYPXxwKoCCbLL2YYA7uZ-4" value="Is it a 1?" style="rhombus;whiteSpace=wrap;html=1;fillColor=#dae8fc;strokeColor=#6c8ebf;" vertex="1" parent="1">
          <mxGeometry x="605" y="115" width="90" height="90" as="geometry" />
        </mxCell>
        <mxCell id="GYPXxwKoCCbLL2YYA7uZ-5" value="Current Player Wins!" style="rounded=0;whiteSpace=wrap;html=1;fillColor=#e1d5e7;strokeColor=#9673a6;" vertex="1" parent="1">
          <mxGeometry x="400" y="350" width="120" height="60" as="geometry" />
        </mxCell>
        <mxCell id="GYPXxwKoCCbLL2YYA7uZ-23" style="edgeStyle=orthogonalEdgeStyle;rounded=0;orthogonalLoop=1;jettySize=auto;html=1;exitX=1;exitY=0.5;exitDx=0;exitDy=0;" edge="1" parent="1" source="GYPXxwKoCCbLL2YYA7uZ-6" target="GYPXxwKoCCbLL2YYA7uZ-8">
          <mxGeometry relative="1" as="geometry" />
        </mxCell>
        <mxCell id="GYPXxwKoCCbLL2YYA7uZ-6" value="User holds score" style="rounded=1;whiteSpace=wrap;html=1;fillColor=#fff2cc;strokeColor=#d6b656;" vertex="1" parent="1">
          <mxGeometry x="40" y="240" width="120" height="60" as="geometry" />
        </mxCell>
        <mxCell id="GYPXxwKoCCbLL2YYA7uZ-27" style="edgeStyle=orthogonalEdgeStyle;rounded=0;orthogonalLoop=1;jettySize=auto;html=1;" edge="1" parent="1" source="GYPXxwKoCCbLL2YYA7uZ-7" target="GYPXxwKoCCbLL2YYA7uZ-14">
          <mxGeometry relative="1" as="geometry" />
        </mxCell>
        <mxCell id="GYPXxwKoCCbLL2YYA7uZ-7" value="User resets game" style="rounded=1;whiteSpace=wrap;html=1;fillColor=#fff2cc;strokeColor=#d6b656;" vertex="1" parent="1">
          <mxGeometry x="40" y="460" width="120" height="60" as="geometry" />
        </mxCell>
        <mxCell id="GYPXxwKoCCbLL2YYA7uZ-24" style="edgeStyle=orthogonalEdgeStyle;rounded=0;orthogonalLoop=1;jettySize=auto;html=1;exitX=1;exitY=0.5;exitDx=0;exitDy=0;" edge="1" parent="1" source="GYPXxwKoCCbLL2YYA7uZ-8" target="GYPXxwKoCCbLL2YYA7uZ-12">
          <mxGeometry relative="1" as="geometry" />
        </mxCell>
        <mxCell id="GYPXxwKoCCbLL2YYA7uZ-8" value="Add current score to total score" style="rounded=0;whiteSpace=wrap;html=1;fillColor=#d5e8d4;strokeColor=#82b366;" vertex="1" parent="1">
          <mxGeometry x="220" y="240" width="120" height="60" as="geometry" />
        </mxCell>
        <mxCell id="GYPXxwKoCCbLL2YYA7uZ-20" style="edgeStyle=orthogonalEdgeStyle;rounded=0;orthogonalLoop=1;jettySize=auto;html=1;exitX=1;exitY=0.5;exitDx=0;exitDy=0;entryX=0;entryY=0.5;entryDx=0;entryDy=0;" edge="1" parent="1" source="GYPXxwKoCCbLL2YYA7uZ-9" target="GYPXxwKoCCbLL2YYA7uZ-4">
          <mxGeometry relative="1" as="geometry" />
        </mxCell>
        <mxCell id="GYPXxwKoCCbLL2YYA7uZ-9" value="Display dice roll" style="rounded=0;whiteSpace=wrap;html=1;fillColor=#d5e8d4;strokeColor=#82b366;" vertex="1" parent="1">
          <mxGeometry x="400" y="130" width="120" height="60" as="geometry" />
        </mxCell>
        <mxCell id="GYPXxwKoCCbLL2YYA7uZ-22" style="edgeStyle=orthogonalEdgeStyle;rounded=0;orthogonalLoop=1;jettySize=auto;html=1;exitX=1;exitY=0.5;exitDx=0;exitDy=0;entryX=0;entryY=0.5;entryDx=0;entryDy=0;" edge="1" parent="1" source="GYPXxwKoCCbLL2YYA7uZ-10" target="GYPXxwKoCCbLL2YYA7uZ-11">
          <mxGeometry relative="1" as="geometry" />
        </mxCell>
        <mxCell id="GYPXxwKoCCbLL2YYA7uZ-10" value="Add dice roll to current score." style="rounded=0;whiteSpace=wrap;html=1;fillColor=#d5e8d4;strokeColor=#82b366;" vertex="1" parent="1">
          <mxGeometry x="760" y="130" width="120" height="60" as="geometry" />
        </mxCell>
        <mxCell id="GYPXxwKoCCbLL2YYA7uZ-11" value="Display new score." style="rounded=0;whiteSpace=wrap;html=1;fillColor=#d5e8d4;strokeColor=#82b366;" vertex="1" parent="1">
          <mxGeometry x="950" y="130" width="120" height="60" as="geometry" />
        </mxCell>
        <mxCell id="GYPXxwKoCCbLL2YYA7uZ-25" style="edgeStyle=orthogonalEdgeStyle;rounded=0;orthogonalLoop=1;jettySize=auto;html=1;" edge="1" parent="1" source="GYPXxwKoCCbLL2YYA7uZ-12" target="GYPXxwKoCCbLL2YYA7uZ-5">
          <mxGeometry relative="1" as="geometry" />
        </mxCell>
        <mxCell id="GYPXxwKoCCbLL2YYA7uZ-26" style="edgeStyle=orthogonalEdgeStyle;rounded=0;orthogonalLoop=1;jettySize=auto;html=1;entryX=0;entryY=0.5;entryDx=0;entryDy=0;" edge="1" parent="1" source="GYPXxwKoCCbLL2YYA7uZ-12" target="GYPXxwKoCCbLL2YYA7uZ-13">
          <mxGeometry relative="1" as="geometry" />
        </mxCell>
        <mxCell id="GYPXxwKoCCbLL2YYA7uZ-12" value="score &amp;gt;= 21?" style="rhombus;whiteSpace=wrap;html=1;fillColor=#dae8fc;strokeColor=#6c8ebf;" vertex="1" parent="1">
          <mxGeometry x="411.25" y="221.25" width="97.5" height="97.5" as="geometry" />
        </mxCell>
        <mxCell id="GYPXxwKoCCbLL2YYA7uZ-13" value="Switch Players" style="rounded=0;whiteSpace=wrap;html=1;fillColor=#d5e8d4;strokeColor=#82b366;" vertex="1" parent="1">
          <mxGeometry x="590" y="240" width="120" height="60" as="geometry" />
        </mxCell>
        <mxCell id="GYPXxwKoCCbLL2YYA7uZ-28" style="edgeStyle=orthogonalEdgeStyle;rounded=0;orthogonalLoop=1;jettySize=auto;html=1;exitX=1;exitY=0.5;exitDx=0;exitDy=0;" edge="1" parent="1" source="GYPXxwKoCCbLL2YYA7uZ-14" target="GYPXxwKoCCbLL2YYA7uZ-15">
          <mxGeometry relative="1" as="geometry" />
        </mxCell>
        <mxCell id="GYPXxwKoCCbLL2YYA7uZ-14" value="Set all scores to 0" style="rounded=0;whiteSpace=wrap;html=1;fillColor=#d5e8d4;strokeColor=#82b366;" vertex="1" parent="1">
          <mxGeometry x="220" y="460" width="120" height="60" as="geometry" />
        </mxCell>
        <mxCell id="GYPXxwKoCCbLL2YYA7uZ-15" value="Set player 1 as starting player" style="rounded=0;whiteSpace=wrap;html=1;fillColor=#d5e8d4;strokeColor=#82b366;" vertex="1" parent="1">
          <mxGeometry x="400" y="460" width="120" height="60" as="geometry" />
        </mxCell>
        <mxCell id="GYPXxwKoCCbLL2YYA7uZ-29" value="&lt;b&gt;No&lt;/b&gt;" style="text;html=1;align=center;verticalAlign=middle;resizable=0;points=[];autosize=1;strokeColor=none;fillColor=none;" vertex="1" parent="1">
          <mxGeometry x="700" y="138" width="40" height="30" as="geometry" />
        </mxCell>
        <mxCell id="GYPXxwKoCCbLL2YYA7uZ-30" value="&lt;b&gt;No&lt;/b&gt;" style="text;html=1;align=center;verticalAlign=middle;resizable=0;points=[];autosize=1;strokeColor=none;fillColor=none;" vertex="1" parent="1">
          <mxGeometry x="530" y="238" width="40" height="30" as="geometry" />
        </mxCell>
        <mxCell id="GYPXxwKoCCbLL2YYA7uZ-31" value="&lt;b&gt;Yes&lt;/b&gt;" style="text;html=1;align=center;verticalAlign=middle;resizable=0;points=[];autosize=1;strokeColor=none;fillColor=none;" vertex="1" parent="1">
          <mxGeometry x="460" y="318.75" width="40" height="30" as="geometry" />
        </mxCell>
      </root>
    </mxGraphModel>
  </diagram>
</mxfile>
